# xmcd
#
# Track frame offsets:
#	150
#	20033
#	38418
#	52397
#	65771
#	73626
#	86701
#	100052
#	118464
#	132157
#	148650
#	160593
#
# Disc length: 2317 seconds
# Revision: 0
# Processed by: cddbd v1.5.2PL0 Copyright (c) Steve Scherf et al.
# Submitted via: dBpowerAMP V12.0
#
DISCID=b1090b0c
DTITLE=Various Artist - Timeless Hits From The Past Bluegrassed 
DYEAR=2012
DGENRE=Country
TTITLE0=Russell Moore and IIIrd Tyme Out - Gentle On My Mind
TTITLE1=Russell Moore and IIIrd Tyme Out - Modern Day Bonnie and Clyde
TTITLE2=Russell Moore, Sonya Isaacs and IIIrd Tyme Out - Golden Ring
TTITLE3=Russell Moore and IIIrd Tyme Out - The Old Home Place
TTITLE4=Russell Moore and IIIrd Tyme Out - Only You
TTITLE5=Russell Moore and IIIrd Tyme Out - Take Me Home Country Roads
TTITLE6=Russell Moore and IIIrd Tyme Out - My Window Faces The South
TTITLE7=Russell Moore and IIIrd Tyme Out - Farewell Party
TTITLE8=Russell Moore and IIIrd Tyme Out - Big Spike Hammer
TTITLE9=Russell Moore and IIIrd Tyme Out - Tulsa Time
TTITLE10=Russell Moore and IIIrd Tyme Out - Mamma Tried
TTITLE11=Russell Moore, Pam Tillis and IIIrd Tyme Out - John and Mary
EXTD=
EXTT0=
EXTT1=
EXTT2=
EXTT3=
EXTT4=
EXTT5=
EXTT6=
EXTT7=
EXTT8=
EXTT9=
EXTT10=
EXTT11=
PLAYORDER=
